{
	"asset":{
		"generator":"Khronos glTF Blender I/O v3.5.30",
		"version":"2.0"
	},
	"scene":0,
	"scenes":[
		{
			"name":"Scene",
			"nodes":[
				0
			]
		}
	],
	"nodes":[
		{
			"mesh":0,
			"name":"testPlatform"
		}
	],
	"materials":[
		{
			"doubleSided":true,
			"name":"platformMaterial",
			"pbrMetallicRoughness":{
				"baseColorTexture":{
					"index":0
				},
				"metallicFactor":0,
				"roughnessFactor":0.5
			}
		}
	],
	"meshes":[
		{
			"name":"Cube",
			"primitives":[
				{
					"attributes":{
						"POSITION":0,
						"TEXCOORD_0":1,
						"NORMAL":2,
						"TANGENT":3
					},
					"indices":4,
					"material":0
				}
			]
		}
	],
	"textures":[
		{
			"sampler":0,
			"source":0
		}
	],
	"images":[
		{
			"mimeType":"image/png",
			"name":"palette8",
			"uri":"palette8.png"
		}
	],
	"accessors":[
		{
			"bufferView":0,
			"componentType":5126,
			"count":190,
			"max":[
				5,
				0.6132078170776367,
				10
			],
			"min":[
				-10,
				-0.21320778131484985,
				-10
			],
			"type":"VEC3"
		},
		{
			"bufferView":1,
			"componentType":5126,
			"count":190,
			"type":"VEC2"
		},
		{
			"bufferView":2,
			"componentType":5126,
			"count":190,
			"type":"VEC3"
		},
		{
			"bufferView":3,
			"componentType":5126,
			"count":190,
			"type":"VEC4"
		},
		{
			"bufferView":4,
			"componentType":5123,
			"count":564,
			"type":"SCALAR"
		}
	],
	"bufferViews":[
		{
			"buffer":0,
			"byteLength":2280,
			"byteOffset":0,
			"target":34962
		},
		{
			"buffer":0,
			"byteLength":1520,
			"byteOffset":2280,
			"target":34962
		},
		{
			"buffer":0,
			"byteLength":2280,
			"byteOffset":3800,
			"target":34962
		},
		{
			"buffer":0,
			"byteLength":3040,
			"byteOffset":6080,
			"target":34962
		},
		{
			"buffer":0,
			"byteLength":1128,
			"byteOffset":9120,
			"target":34963
		}
	],
	"samplers":[
		{
			"magFilter":9728,
			"minFilter":9984
		}
	],
	"buffers":[
		{
			"byteLength":10248,
			"uri":"testPlatform.bin"
		}
	]
}
